<svg width="24" height="24" viewBox="0 0 24 24" fill="none" xmlns="http://www.w3.org/2000/svg">
<g clip-path="url(#clip0_355_706)">
<path d="M6.59 0.660432C8.93 -1.14957 11.47 1.06043 12.04 4.50043C12.47 4.50043 12.89 4.62043 13.27 4.84043C13.79 4.24043 14.25 3.42043 14.07 2.50043C13.65 0.350432 16.06 -1.38957 18.35 1.58043C20.16 3.92043 17.95 6.46043 14.5 7.03043C14.5 7.46043 14.39 7.89043 14.16 8.27043C14.76 8.78043 15.58 9.24043 16.5 9.06043C18.63 8.64043 20.38 11.0404 17.41 13.3404C15.07 15.1504 12.53 12.9404 11.96 9.50043C11.53 9.50043 11.11 9.37043 10.74 9.15043C10.22 9.75043 9.75 10.5804 9.93 11.5004C10.35 13.6404 7.94 15.3904 5.65 12.4204C3.83 10.0704 6.05 7.53043 9.5 6.97043C9.5 6.54043 9.63 6.12043 9.85 5.74043C9.25 5.23043 8.43 4.76043 7.5 4.94043C5.37 5.36043 3.62 2.96043 6.59 0.660432ZM5 16.0004H7C7.53043 16.0004 8.03914 16.2111 8.41421 16.5862C8.78929 16.9613 9 17.47 9 18.0004V24.0004H7V22.0004H5V24.0004H3V18.0004C3 17.47 3.21071 16.9613 3.58579 16.5862C3.96086 16.2111 4.46957 16.0004 5 16.0004ZM5 18.0004V20.0004H7V18.0004H5ZM12.93 16.0004H15L12.07 24.0004H10L12.93 16.0004ZM18 16.0004H21V18.0004H18V22.0004H21V24.0004H18C17.4696 24.0004 16.9609 23.7897 16.5858 23.4146C16.2107 23.0396 16 22.5309 16 22.0004V18.0004C16 17.47 16.2107 16.9613 16.5858 16.5862C16.9609 16.2111 17.4696 16.0004 18 16.0004Z" fill="#4F4F4F"/>
</g>
<defs>
<clipPath id="clip0_355_706">
<rect width="24" height="24" fill="white"/>
</clipPath>
</defs>
</svg>
