<svg width="56" height="56" viewBox="0 0 56 56" fill="none" xmlns="http://www.w3.org/2000/svg">
<path d="M18.5248 5.72592C17.8686 6.38227 17.5 7.27235 17.5 8.20042C17.5 9.1285 17.8686 10.0186 18.5248 10.6749L35.8498 27.9999L18.5248 45.3249C17.8872 45.985 17.5344 46.8691 17.5424 47.7868C17.5504 48.7045 17.9185 49.5824 18.5674 50.2313C19.2163 50.8802 20.0942 51.2483 21.0118 51.2563C21.9295 51.2643 22.8136 50.9115 23.4738 50.2739L43.2733 30.4744C43.9294 29.8181 44.298 28.928 44.298 27.9999C44.298 27.0718 43.9294 26.1818 43.2733 25.5254L23.4738 5.72592C22.8174 5.06978 21.9273 4.70117 20.9993 4.70117C20.0712 4.70117 19.1811 5.06978 18.5248 5.72592Z" fill="#4F4F4F"/>
</svg>
