<svg width="256" height="256" viewBox="0 0 256 256" fill="none" xmlns="http://www.w3.org/2000/svg">
<path d="M232 98.0004H206V96.0004C206 94.4091 205.368 92.883 204.243 91.7578C203.117 90.6325 201.591 90.0004 200 90.0004H136C134.409 90.0004 132.883 90.6325 131.757 91.7578C130.632 92.883 130 94.4091 130 96.0004V98.0004H62V52.0004C62 48.2874 63.475 44.7264 66.1005 42.1009C68.726 39.4754 72.287 38.0004 76 38.0004C79.2721 37.9944 82.4496 39.0975 85.014 41.1298C87.5784 43.1621 89.3783 46.0035 90.12 49.1904C90.2652 49.9732 90.5648 50.7192 91.0012 51.3851C91.4376 52.0509 92.0022 52.6232 92.6621 53.0687C93.3219 53.5142 94.0638 53.8239 94.8445 53.9798C95.6252 54.1357 96.4292 54.1346 97.2095 53.9767C97.9898 53.8188 98.7309 53.5071 99.3896 53.0599C100.048 52.6128 100.611 52.039 101.046 51.372C101.481 50.705 101.778 49.9582 101.922 49.175C102.065 48.3919 102.051 47.588 101.88 46.8104C100.614 40.8962 97.3496 35.5986 92.6363 31.8086C87.9229 28.0186 82.0481 25.9675 76 26.0004C69.1044 26.0004 62.4912 28.7397 57.6152 33.6156C52.7393 38.4916 50 45.1048 50 52.0004V98.0004H24C20.287 98.0004 16.726 99.4754 14.1005 102.101C11.475 104.726 10 108.287 10 112V144C10.0159 158.317 15.7103 172.043 25.8338 182.167C35.9573 192.29 49.6832 197.985 64 198H66V216C66 217.592 66.6321 219.118 67.7574 220.243C68.8826 221.368 70.4087 222 72 222C73.5913 222 75.1174 221.368 76.2426 220.243C77.3679 219.118 78 217.592 78 216V198H178V216C178 217.592 178.632 219.118 179.757 220.243C180.883 221.368 182.409 222 184 222C185.591 222 187.117 221.368 188.243 220.243C189.368 219.118 190 217.592 190 216V198H192C206.317 197.985 220.043 192.29 230.166 182.167C240.29 172.043 245.984 158.317 246 144V112C246 108.287 244.525 104.726 241.899 102.101C239.274 99.4754 235.713 98.0004 232 98.0004ZM142 102H194V138H142V102ZM234 144C234 155.139 229.575 165.822 221.698 173.699C213.822 181.575 203.139 186 192 186H64C52.8609 186 42.178 181.575 34.3015 173.699C26.425 165.822 22 155.139 22 144V112C22 111.47 22.2107 110.961 22.5858 110.586C22.9609 110.211 23.4696 110 24 110H130V144C130 145.592 130.632 147.118 131.757 148.243C132.883 149.368 134.409 150 136 150H200C201.591 150 203.117 149.368 204.243 148.243C205.368 147.118 206 145.592 206 144V110H232C232.53 110 233.039 110.211 233.414 110.586C233.789 110.961 234 111.47 234 112V144Z" fill="#4F4F4F"/>
</svg>
