<svg width="47" height="47" viewBox="0 0 47 47" fill="none" xmlns="http://www.w3.org/2000/svg">
<g clip-path="url(#clip0_65_1397)">
<path d="M8.8125 0H11.75V8.8125H8.8125V0ZM32.3125 0H35.25V8.8125H32.3125V0Z" fill="#F3EADD"/>
<path d="M26.4375 41.4188C26.4375 41.125 26.4375 41.125 26.4375 41.4188L2.9375 41.125V17.625H41.125V21.15C42.3 21.4438 43.1813 22.0312 44.0625 22.9125V2.9375H38.1875V11.75H29.375V2.9375H14.6875V11.75H5.875V2.9375H0V44.0625H26.4375V41.4188Z" fill="#F3EADD"/>
<path d="M44.063 29.375C44.0806 30.1574 43.9419 30.9354 43.6547 31.6634C43.3676 32.3914 42.9379 33.0547 42.3909 33.6143C41.8439 34.174 41.1906 34.6187 40.4694 34.9224C39.7481 35.2261 38.9735 35.3826 38.1909 35.3828C37.4083 35.383 36.6336 35.2269 35.9122 34.9235C35.1908 34.6202 34.5373 34.1758 33.99 33.6164C33.4428 33.057 33.0128 32.394 32.7253 31.6661C32.4378 30.9383 32.2986 30.1603 32.3159 29.3779C32.3498 27.8429 32.9834 26.3822 34.0809 25.3084C35.1783 24.2346 36.6526 23.6332 38.188 23.6328C39.7234 23.6324 41.1979 24.2331 42.2959 25.3063C43.394 26.3796 44.0282 27.84 44.063 29.375Z" fill="#F3EADD"/>
<path d="M40.8312 35.25H35.5438C32.3125 35.25 29.375 37.8938 29.375 41.4188V47H47V41.4188C47 37.8938 44.3562 35.25 40.8312 35.25Z" fill="#F3EADD"/>
</g>
<defs>
<clipPath id="clip0_65_1397">
<rect width="47" height="47" fill="white"/>
</clipPath>
</defs>
</svg>
