<svg width="64" height="64" viewBox="0 0 64 64" fill="none" xmlns="http://www.w3.org/2000/svg">
<path fill-rule="evenodd" clip-rule="evenodd" d="M31.9999 4.00033C31.4695 4.00033 30.9608 4.21104 30.5857 4.58612C30.2106 4.96119 29.9999 5.4699 29.9999 6.00033L29.9999 53.1723L17.4159 40.5843C17.0404 40.2088 16.531 39.9978 15.9999 39.9978C15.4688 39.9978 14.9595 40.2088 14.5839 40.5843C14.2084 40.9599 13.9974 41.4692 13.9974 42.0003C13.9974 42.5314 14.2084 43.0408 14.5839 43.4163L30.5839 59.4163C30.7697 59.6026 30.9904 59.7504 31.2334 59.8512C31.4764 59.952 31.7368 60.0039 31.9999 60.0039C32.263 60.0039 32.5235 59.952 32.7664 59.8512C33.0094 59.7504 33.2301 59.6026 33.4159 59.4163L49.4159 43.4163C49.6019 43.2304 49.7494 43.0096 49.85 42.7667C49.9506 42.5237 50.0024 42.2633 50.0024 42.0003C50.0024 41.4692 49.7915 40.9599 49.4159 40.5843C49.0404 40.2088 48.531 39.9978 47.9999 39.9978C47.4688 39.9978 46.9595 40.2088 46.5839 40.5843L33.9999 53.1723L33.9999 6.00033C33.9999 5.4699 33.7892 4.96119 33.4141 4.58612C33.0391 4.21104 32.5303 4.00033 31.9999 4.00033Z" fill="#F3EADD"/>
</svg>
