<svg width="28" height="28" viewBox="0 0 28 28" fill="none" xmlns="http://www.w3.org/2000/svg">
<path fill-rule="evenodd" clip-rule="evenodd" d="M13.9989 1.75039C13.7668 1.75039 13.5443 1.84258 13.3802 2.00667C13.2161 2.17076 13.1239 2.39333 13.1239 2.62539L13.1239 23.2631L7.61839 17.7559C7.45409 17.5916 7.23125 17.4993 6.9989 17.4993C6.76654 17.4993 6.5437 17.5916 6.37939 17.7559C6.21509 17.9202 6.12279 18.143 6.12279 18.3754C6.12279 18.6077 6.21509 18.8306 6.37939 18.9949L13.3794 25.9949C13.4607 26.0764 13.5572 26.141 13.6635 26.1851C13.7698 26.2292 13.8838 26.252 13.9989 26.252C14.114 26.252 14.2279 26.2292 14.3343 26.1851C14.4406 26.141 14.5371 26.0764 14.6184 25.9949L21.6184 18.9949C21.6997 18.9135 21.7643 18.817 21.8083 18.7107C21.8523 18.6044 21.875 18.4904 21.875 18.3754C21.875 18.143 21.7827 17.9202 21.6184 17.7559C21.4541 17.5916 21.2313 17.4993 20.9989 17.4993C20.7665 17.4993 20.5437 17.5916 20.3794 17.7559L14.8739 23.2631L14.8739 2.62539C14.8739 2.39333 14.7817 2.17076 14.6176 2.00667C14.4535 1.84258 14.231 1.75039 13.9989 1.75039Z" fill="#949085"/>
</svg>
