<svg width="72" height="72" viewBox="0 0 72 72" fill="none" xmlns="http://www.w3.org/2000/svg">
<path d="M19.1996 33.5999H52.7996V28.7999H19.1996V33.5999ZM19.1996 38.3999V41.9999C19.1996 43.7334 19.541 45.4498 20.2044 47.0513C20.8677 48.6528 21.84 50.108 23.0658 51.3337C24.2915 52.5595 25.7467 53.5318 27.3482 54.1952C28.9497 54.8585 30.6661 55.2 32.3996 55.2H39.5996C41.333 55.2 43.0495 54.8585 44.651 54.1952C46.2525 53.5318 47.7077 52.5595 48.9334 51.3337C50.1591 50.108 51.1314 48.6528 51.7948 47.0513C52.4582 45.4498 52.7996 43.7334 52.7996 41.9999V38.3999H19.1996ZM16.7996 23.9999H55.1996C55.5148 23.9999 55.8269 24.062 56.1181 24.1826C56.4093 24.3032 56.6738 24.48 56.8967 24.7029C57.1195 24.9257 57.2963 25.1903 57.4169 25.4815C57.5375 25.7727 57.5996 26.0848 57.5996 26.4V41.9999C57.5996 46.7738 55.7032 51.3522 52.3275 54.7278C48.9519 58.1035 44.3735 59.9999 39.5996 59.9999H32.3996C27.6257 59.9999 23.0473 58.1035 19.6717 54.7278C16.296 51.3522 14.3996 46.7738 14.3996 41.9999V26.4C14.3996 26.0848 14.4617 25.7727 14.5823 25.4815C14.7029 25.1903 14.8797 24.9257 15.1025 24.7029C15.3254 24.48 15.5899 24.3032 15.8811 24.1826C16.1723 24.062 16.4844 23.9999 16.7996 23.9999ZM35.9996 2.3999C36.3148 2.3999 36.6269 2.46198 36.918 2.5826C37.2092 2.70321 37.4738 2.88 37.6967 3.10286C37.9195 3.32573 38.0963 3.59031 38.2169 3.8815C38.3375 4.17268 38.3996 4.48477 38.3996 4.79995V16.7999C38.3996 17.4364 38.1467 18.0469 37.6966 18.4969C37.2466 18.947 36.6361 19.1999 35.9996 19.1999C35.3631 19.1999 34.7526 18.947 34.3026 18.4969C33.8525 18.0469 33.5996 17.4364 33.5996 16.7999V4.79995C33.5996 4.48477 33.6617 4.17268 33.7823 3.8815C33.9029 3.59031 34.0797 3.32573 34.3025 3.10286C34.5254 2.88 34.79 2.70321 35.0811 2.5826C35.3723 2.46198 35.6844 2.3999 35.9996 2.3999ZM26.3996 7.19993C27.0361 7.19993 27.6466 7.45278 28.0967 7.90286C28.5467 8.35295 28.7996 8.96339 28.7996 9.5999V16.7999C28.7996 17.4364 28.5467 18.0469 28.0967 18.497C27.6466 18.9471 27.0361 19.1999 26.3996 19.1999C25.7631 19.1999 25.1526 18.9471 24.7025 18.497C24.2524 18.0469 23.9996 17.4364 23.9996 16.7999V9.5999C23.9996 9.28473 24.0617 8.97264 24.1823 8.68145C24.3029 8.39027 24.4797 8.1257 24.7025 7.90284C24.9254 7.67998 25.19 7.5032 25.4812 7.38259C25.7724 7.26199 26.0844 7.19992 26.3996 7.19993ZM45.5996 7.19993C45.9147 7.19992 46.2268 7.26199 46.518 7.38259C46.8092 7.5032 47.0738 7.67998 47.2967 7.90284C47.5195 8.1257 47.6963 8.39027 47.8169 8.68145C47.9375 8.97264 47.9996 9.28473 47.9996 9.5999V16.7999C47.9996 17.4364 47.7468 18.0469 47.2967 18.497C46.8466 18.9471 46.2361 19.1999 45.5996 19.1999C44.9631 19.1999 44.3526 18.9471 43.9025 18.497C43.4525 18.0469 43.1996 17.4364 43.1996 16.7999V9.5999C43.1996 8.96339 43.4525 8.35295 43.9025 7.90286C44.3526 7.45278 44.9631 7.19993 45.5996 7.19993ZM11.9996 64.8047H59.9996C60.6361 64.8047 61.2466 65.0576 61.6966 65.5077C62.1467 65.9577 62.3996 66.5682 62.3996 67.2047C62.3996 67.8412 62.1467 68.4517 61.6966 68.9018C61.2466 69.3519 60.6361 69.6047 59.9996 69.6047H11.9996C11.3631 69.6047 10.7526 69.3519 10.3026 68.9018C9.85247 68.4517 9.59961 67.8412 9.59961 67.2047C9.59961 66.5682 9.85247 65.9577 10.3026 65.5077C10.7526 65.0576 11.3631 64.8047 11.9996 64.8047Z" fill="#4F4F4F"/>
</svg>
