<svg width="72" height="72" viewBox="0 0 72 72" fill="none" xmlns="http://www.w3.org/2000/svg">
<path d="M21.5156 4.92188V13.0781H50.4844V4.92188H21.5156ZM29.9953 6.75H34.4953L32.2453 11.25L29.9953 6.75ZM40.5 6.75L42.75 11.25H38.25L40.5 6.75ZM14.7656 19.2656V68.4844H34.7344V19.2656H14.7656ZM37.2656 19.2656V68.4844H57.2344V19.2656H37.2656ZM61.5938 39.0938V50.9062H68.9062V39.0938H61.5938ZM65.25 42.75C65.8467 42.75 66.419 42.9871 66.841 43.409C67.2629 43.831 67.5 44.4033 67.5 45C67.5 45.5967 67.2629 46.169 66.841 46.591C66.419 47.0129 65.8467 47.25 65.25 47.25C64.6533 47.25 64.081 47.0129 63.659 46.591C63.2371 46.169 63 45.5967 63 45C63 44.4033 63.2371 43.831 63.659 43.409C64.081 42.9871 64.6533 42.75 65.25 42.75Z" fill="#4F4F4F"/>
</svg>
