<?xml version="1.0" encoding="UTF-8"?>
<svg version="1.1" xmlns="http://www.w3.org/2000/svg" width="746" height="730">
<path d="M0 0 C2.1317459 0.01004282 4.26346966 0.0162574 6.39523315 0.02119827 C25.13563024 0.06496361 43.87278646 0.23670723 62.60934448 0.63493729 C63.56808472 0.65440414 64.52682495 0.673871 65.51461792 0.69392776 C68.16097624 0.74997175 70.80700467 0.81359633 73.45309448 0.88103104 C74.22584717 0.89775864 74.99859985 0.91448624 75.79476929 0.93172073 C80.99300513 1.08109793 80.99300513 1.08109793 82.10934448 2.19743729 C82.33791761 4.68317001 82.49474289 7.14267888 82.60934448 9.63493729 C82.64922485 10.47435867 82.68910522 11.31378006 82.73019409 12.17863846 C82.86578252 15.18457832 82.98858948 18.19086565 83.10934448 21.19743729 C83.17919556 22.86177811 83.17919556 22.86177811 83.25045776 24.55974197 C84.69359319 60.30058061 84.42978848 96.09957907 83.67926025 131.85399246 C83.11583982 158.79734315 82.96477874 185.73567802 82.92767334 212.6844368 C82.92188114 215.86481171 82.91218684 219.0451521 82.90133667 222.22551346 C82.88460052 227.28693908 82.87845326 232.34827506 82.88014793 237.4097271 C82.87931309 239.28778216 82.87519243 241.16583924 82.86745644 243.04387856 C82.34461195 269.75466325 82.34461195 269.75466325 94.13278198 292.63493729 C99.0336664 296.50915422 104.08170375 297.48971778 110.23434448 297.13493729 C115.95093666 296.27656354 119.94164089 294.70256644 123.76559448 290.28337479 C136.73447683 272.29222918 133.41212768 245.13034671 133.30657959 224.12508011 C133.29328553 221.15133725 133.28797085 218.17759601 133.28214073 215.20383072 C133.24070752 195.61985035 132.96325259 176.04703418 132.53942871 156.46751785 C132.04289042 132.93679263 131.99413474 109.408005 131.98596191 85.87282181 C131.98436639 82.86375461 131.98082468 79.85469545 131.97677612 76.84563065 C131.91598816 25.82759589 131.91598816 25.82759589 134.10934448 1.19743729 C159.2742804 0.47354348 184.44215133 0.05414869 209.6171875 -0.03474045 C212.40721773 -0.04492659 215.19705348 -0.06215103 217.98699951 -0.08600998 C253.92839565 -0.37981698 296.31699792 0.77561847 324.29684448 26.75993729 C337.76644148 40.89337769 342.78994651 59.57834298 343.35934448 78.75993729 C342.65766696 100.84214182 334.69440455 119.58550642 319.10934448 135.19743729 C318.42356323 135.8948201 317.73778198 136.59220291 317.03121948 137.31071854 C295.33043464 158.00683742 262.64023755 163.44163256 234.10934448 167.19743729 C233.31109253 167.30418777 232.51284058 167.41093826 231.69039917 167.52092361 C224.13358553 168.40899736 216.58329103 168.30893843 208.98434448 168.25993729 C207.63278365 168.25490868 206.281221 168.25034819 204.92965698 168.24626541 C201.65617183 168.23457439 198.38278262 168.21818758 195.10934448 168.19743729 C194.77934448 164.56743729 194.44934448 160.93743729 194.10934448 157.19743729 C201.89291536 153.71611359 209.62494687 151.8656127 217.94085693 150.2474556 C251.32046265 143.7567361 251.32046265 143.7567361 276.79684448 122.44743729 C286.7798787 107.43877536 291.8064537 89.09157408 288.42575073 71.15446854 C285.14377945 56.05414937 278.80611638 43.10919181 265.67184448 34.32243729 C257.3628148 29.07062311 248.01968873 27.40354505 238.48434448 25.63493729 C237.32644409 25.41877762 236.1685437 25.20261795 234.97555542 24.97990799 C231.68876019 24.3742881 228.39984326 23.78255669 225.10934448 23.19743729 C223.96610718 22.98957596 223.96610718 22.98957596 222.79977417 22.77751541 C211.67440078 20.80338901 196.04800987 18.55121549 185.10934448 22.19743729 C184.24056215 31.29142815 183.80073409 40.36782973 183.55856323 49.49821854 C183.53774878 50.26400034 183.51693432 51.02978214 183.49548912 51.81876945 C182.82963405 77.22031408 182.92193152 102.635819 182.92423332 128.04425442 C182.9239304 132.95300525 182.91577194 137.86170077 182.90353394 142.77043533 C182.83519441 170.85838191 182.8738578 198.92696885 183.99606323 226.99821854 C184.05448363 228.50025361 184.05448363 228.50025361 184.11408424 230.03263283 C183.62183661 255.46292388 183.62183661 255.46292388 190.10934448 279.19743729 C201.40042416 289.43619972 227.58695902 286.34710766 241.85739136 286.75163651 C242.93853415 286.78307994 242.93853415 286.78307994 244.04151821 286.81515861 C260.6060305 287.28777324 277.16591478 287.34555969 293.73607445 287.33176279 C297.88267443 287.32915361 302.02927269 287.33159965 306.1758728 287.33314896 C313.12717089 287.33494655 320.0784582 287.33262888 327.02975464 287.32780838 C334.96073219 287.32237051 342.89168399 287.32413491 350.82266092 287.32963479 C357.74611579 287.33423589 364.6695631 287.33478295 371.59301901 287.33219612 C375.6781414 287.33067108 379.76325188 287.33033119 383.84837341 287.3337326 C405.61978796 287.34946401 427.351052 286.96293304 449.10934448 286.19743729 C449.13013751 284.57085792 449.15069052 282.94427549 449.17114258 281.3176918 C449.18261385 280.41188905 449.19408512 279.50608629 449.20590401 278.57283497 C449.52079754 250.19637868 448.20067564 217.17488595 428.27340698 195.17009354 C416.3588049 183.68280841 399.24931452 180.67332021 383.2963562 180.77556229 C366.67981736 181.28324347 351.66568416 186.93805033 340.10934448 199.19743729 C323.53323606 219.10263861 318.128285 246.20202553 315.56637573 271.31071854 C315.10934448 275.19743729 315.10934448 275.19743729 314.10934448 276.19743729 C311.89450073 276.18181229 311.89450073 276.18181229 309.17184448 275.94743729 C307.82799683 275.84689041 307.82799683 275.84689041 306.45700073 275.74431229 C304.10934448 275.19743729 304.10934448 275.19743729 302.10934448 272.19743729 C293.64393996 239.17290864 308.05840486 192.57329257 324.32809448 163.99040604 C327.24762298 159.41263657 330.51511593 155.26079205 334.10934448 151.19743729 C334.88664917 150.27898026 334.88664917 150.27898026 335.67965698 149.34196854 C347.51259764 136.34951861 366.83976916 128.0501075 384.19918823 127.08073807 C404.66755428 126.21350755 421.86017991 130.28538392 438.10934448 143.19743729 C438.96012573 143.84841385 439.81090698 144.49939041 440.68746948 145.17009354 C458.56873482 160.13844306 466.56596487 186.32944384 468.662323 208.69377518 C470.33966038 228.85168621 470.38255876 248.94259231 470.30496216 269.15581131 C470.29408237 272.72978197 470.29449606 276.30371452 470.29510021 279.8776989 C470.29482544 283.38693143 470.28929771 286.89614041 470.28209877 290.40536499 C470.27897693 292.04839146 470.27696042 293.69142051 470.27620506 295.33444977 C470.26796316 303.86962914 470.11954734 312.37802425 469.66134644 320.90202713 C469.62275859 321.63147348 469.58417074 322.36091984 469.54441357 323.11247063 C469.28382073 327.51878962 468.75445551 331.83310416 468.10934448 336.19743729 C466.80989143 336.20074743 465.51043839 336.20405758 464.17160797 336.20746803 C433.27100435 336.28661921 402.37044817 336.37588927 371.46991083 336.4774889 C367.6601064 336.4900066 363.8503017 336.50243955 360.04049683 336.5148201 C359.28208703 336.51728609 358.52367723 336.51975209 357.74228531 336.52229281 C345.48933879 336.56193194 333.23638314 336.59471825 320.98341018 336.6249371 C308.39496753 336.65613716 295.80656332 336.69478257 283.21816397 336.74022734 C275.46100224 336.76799981 267.70386838 336.79008108 259.94667053 336.80469979 C253.9815501 336.81656602 248.0165129 336.83883017 242.05143547 336.86482048 C239.6167546 336.87383827 237.18205882 336.87957282 234.74736214 336.88165092 C205.1028157 336.02527533 205.1028157 336.02527533 178.73434448 347.50603104 C174.76683193 351.63567752 172.91771743 355.98335006 172.67184448 361.69743729 C173.01971121 368.01339256 174.51001502 373.0738701 179.23434448 377.44743729 C194.92483357 389.3851496 217.16902957 387.64332034 235.83639526 387.62981033 C238.38089468 387.63884453 240.92538977 387.64917576 243.46987915 387.66069412 C248.91095046 387.68244643 254.35192282 387.69533502 259.7930336 387.69982338 C267.65958407 387.70632832 275.526021 387.72934093 283.3925253 387.75616667 C296.16058307 387.79926872 308.928636 387.82932968 321.69674683 387.85100174 C334.08739592 387.87206146 346.47800563 387.89937974 358.86862183 387.93498611 C359.63453766 387.93718494 360.4004535 387.93938376 361.18957891 387.94164922 C365.03259817 387.95272012 368.87561706 387.96391269 372.7186358 387.97516572 C404.51550619 388.0681156 436.31239022 388.13960159 468.10934448 388.19743729 C470.72641604 408.69083821 470.29713698 429.40662093 470.29464722 450.0304451 C470.29456609 453.54775016 470.30150094 457.06492459 470.31515503 460.58220291 C470.65446485 549.43897053 470.65446485 549.43897053 441.90231323 578.57243729 C437.91676678 582.31829353 433.80707235 585.40581625 429.10934448 588.19743729 C428.34364136 588.65634354 427.57793823 589.11524979 426.78903198 589.58806229 C410.73991551 598.38064755 391.13701228 599.95601818 373.48434448 595.50993729 C351.64076538 589.12591773 334.52968767 577.19627997 322.56246948 557.67399979 C312.50009418 539.22631173 308.08960778 517.62081293 304.10934448 497.19743729 C303.88891479 496.11921707 303.88891479 496.11921707 303.66403198 495.01921463 C301.1259742 482.29179989 298.98514326 462.57004096 303.10934448 450.19743729 C306.81989865 448.18313645 309.93786183 448.00341484 314.10934448 448.19743729 C315.75635333 452.76845453 316.80177301 457.32632665 317.66012573 462.09587479 C317.94953024 463.64410967 318.23925469 465.19228477 318.52926636 466.74040604 C318.97392583 469.1392844 319.41570336 471.53859304 319.85128784 473.93913651 C324.02966832 496.86421547 329.9980806 518.69438479 349.48043823 533.44743729 C353.81143553 536.33047858 358.23251273 538.40677862 363.10934448 540.19743729 C363.96399292 540.51712479 364.81864136 540.83681229 365.69918823 541.16618729 C382.65160881 546.41973513 403.25498216 544.34043255 419.04684448 536.50993729 C432.36073909 528.50563183 439.55133691 516.15701376 443.46871948 501.47624588 C445.7588006 492.17085716 447.02648517 482.7083829 448.10934448 473.19743729 C448.24211792 472.0488826 448.37489136 470.90032791 448.51168823 469.71696854 C449.32432682 461.11190515 449.19808376 452.47626179 449.14038086 443.84167862 C449.13461092 442.97136159 449.12884098 442.10104456 449.12289619 441.20435429 C449.11842413 440.54207168 449.11395206 439.87978907 449.10934448 439.19743729 C429.6208754 437.66438047 410.31196153 436.92208183 390.75387573 437.04899979 C388.12023313 437.05842071 385.4865981 437.06705391 382.85295105 437.07478714 C376.67477283 437.09485736 370.49670823 437.12616878 364.31860548 437.16237271 C359.54637093 437.19011357 354.77413565 437.21320325 350.00186157 437.23295975 C333.95012285 437.29988708 317.89881413 437.39514634 301.84738159 437.5148201 C295.72601645 437.56041934 289.60463471 437.59716767 283.48319215 437.63058031 C277.41596674 437.66427469 271.34885092 437.70818559 265.2817173 437.75550079 C262.77005851 437.77369392 260.258376 437.78892306 257.74667931 437.80078125 C237.7789582 437.8990103 217.86204913 438.70526328 198.10934448 441.82243729 C197.21602417 441.95649979 196.32270386 442.09056229 195.40231323 442.22868729 C193.30359428 442.54462347 191.20626751 442.86979306 189.10934448 443.19743729 C188.46391053 446.6731038 187.84757216 450.15345672 187.23434448 453.63493729 C187.06032104 454.57015213 186.88629761 455.50536697 186.70700073 456.46892166 C182.99363019 477.85518533 182.83412458 499.52255789 182.94918823 521.16228104 C182.95675642 523.8957222 182.96086955 526.62916537 182.96495056 529.36261368 C182.97620913 535.78582259 182.99681406 542.2089586 183.02184826 548.63212734 C183.07156473 561.38943376 183.10795229 574.14677626 183.13262582 586.90415549 C183.13533257 588.28379462 183.13818818 589.66343347 183.14119315 591.04307199 C183.18785157 612.69111164 182.9454635 634.31277 182.28237724 655.95079803 C182.06640777 663.17805292 181.98048543 670.40478873 181.92184448 677.63493729 C181.91209091 678.72175293 181.90233734 679.80856857 181.89228821 680.92831802 C181.47944855 692.2072525 181.47944855 692.2072525 185.7897644 701.99089432 C193.9658168 706.24371517 207.60941382 702.8563109 216.48434448 701.88493729 C217.75221802 701.74813553 219.02009155 701.61133377 220.3263855 701.47038651 C241.50289017 699.10673743 263.98558665 695.99079798 278.39450073 678.57634354 C289.20490202 663.57968207 290.98530356 644.02277056 288.39108276 626.14690018 C285.88950678 611.52598691 279.395363 599.77300799 267.12496948 591.08415604 C251.7292865 581.48895925 233.51841932 578.41153514 215.99630737 574.7323494 C197.71322499 570.80131779 197.71322499 570.80131779 194.10934448 567.19743729 C194.19918749 565.33971567 194.35546309 563.48495744 194.54684448 561.63493729 C194.64868042 560.62302322 194.75051636 559.61110916 194.85543823 558.56853104 C194.93922729 557.7860701 195.02301636 557.00360916 195.10934448 556.19743729 C235.69084303 555.16233039 286.84977378 558.84976693 318.10934448 588.19743729 C333.6850058 603.21516447 342.33524434 622.5555076 343.19161987 644.28508377 C343.39432266 657.31617948 341.1371626 670.59086486 335.10934448 682.19743729 C334.69039917 683.04306229 334.27145386 683.88868729 333.83981323 684.75993729 C324.13752996 702.65463843 306.6169493 712.00908354 287.80856323 717.69353104 C269.59877069 722.76118539 250.80473935 724.36029358 231.98043823 724.33024979 C230.51706925 724.33126706 229.05370045 724.33260746 227.59033203 724.33424759 C223.70781565 724.33692379 219.82533983 724.33252368 215.94282913 724.32600784 C213.54226817 724.32243047 211.1417132 724.32081764 208.7411499 724.31975174 C183.85349512 724.30600538 158.98466856 724.03425592 134.10934448 723.19743729 C131.37304904 696.27045927 131.84082113 669.2463436 131.91372681 642.21623611 C131.92443266 637.24582278 131.92415513 632.27543745 131.92371082 627.30501461 C131.92433289 600.83003637 132.14754129 574.37251671 132.74731445 547.90423965 C133.08343625 533.06520894 133.29568181 518.23535656 133.29464722 503.39201736 C133.2969146 499.77301398 133.31550081 496.15428142 133.33395386 492.53532791 C134.56438937 460.4839373 134.56438937 460.4839373 122.10934448 432.19743729 C116.9532039 428.09021746 111.36320241 426.85213276 104.84762573 427.38103104 C98.98058004 428.34725079 94.84055394 430.52644689 91.10934448 435.19743729 C84.07480227 447.25132128 82.94041521 460.51924752 82.99581909 474.18727493 C82.99567023 475.15344447 82.99552137 476.119614 82.995368 477.1150614 C82.99605889 480.3318331 83.00388501 483.54854669 83.01168823 486.76530838 C83.01360879 489.0806055 83.01507194 491.39590303 83.01611328 493.71120071 C83.01926933 498.6891075 83.0255309 503.66699722 83.03417969 508.64489746 C83.04658865 515.86265545 83.05282349 523.08040668 83.05711305 530.29817362 C83.0641725 542.03787394 83.07496451 553.77756734 83.08883667 565.51726151 C83.08966448 566.21895441 83.09049229 566.92064731 83.09134519 567.64360364 C83.09808285 573.33046632 83.1050026 579.01732878 83.11194801 584.70419121 C83.11799725 589.66076142 83.12397948 594.61733171 83.12985229 599.57390213 C83.13109448 600.62059879 83.13109448 600.62059879 83.13236177 601.68844084 C83.14610616 613.37427372 83.15583482 625.06010672 83.16276264 636.74594557 C83.16771721 644.56918041 83.17753607 652.39238885 83.19119263 660.21561313 C83.19870921 665.10690432 83.2019793 669.99819202 83.20415878 674.88948822 C83.20601399 677.13909749 83.2095806 679.38870619 83.21509171 681.63830948 C83.23994838 692.12484252 83.18961968 702.58832013 82.66574097 713.06380081 C82.62688561 713.86184108 82.58803026 714.65988135 82.54799747 715.48210466 C82.23638862 720.94334902 82.23638862 720.94334902 81.10934448 723.19743729 C56.70803537 724.05202859 32.30049148 724.35275078 7.88571167 724.42961502 C4.73523991 724.43984487 1.58493787 724.4571206 -1.56546021 724.48088455 C-38.65615147 724.74816137 -80.83167968 724.09048333 -109.41799927 696.86149979 C-123.2178635 681.99339962 -127.6535996 661.91650246 -127.16799927 642.16228104 C-125.97387996 625.09142057 -120.67545815 609.66624057 -109.89065552 596.19743729 C-109.38276489 595.52712479 -108.87487427 594.85681229 -108.35159302 594.16618729 C-85.87652132 566.26609828 -45.87789986 561.07895196 -12.70315552 556.94743729 C-11.99809875 556.8583107 -11.29304199 556.76918411 -10.56661987 556.67735672 C11.20889085 553.95438573 11.20889085 553.95438573 17.17184448 556.50993729 C19.10934448 558.19743729 19.10934448 558.19743729 21.10934448 561.19743729 C21.23434448 564.38493729 21.23434448 564.38493729 21.10934448 567.19743729 C14.47723931 570.52946464 8.06754285 572.27168134 0.79684448 573.63493729 C-1.33517417 574.06209589 -3.46667927 574.49182501 -5.59768677 574.92399979 C-6.65552368 575.13701736 -7.7133606 575.35003494 -8.80325317 575.5695076 C-29.29697513 579.73761236 -49.59888478 585.3884561 -62.76565552 603.00993729 C-72.96030314 618.75418924 -75.47758777 637.50876747 -72.16799927 655.83415604 C-69.22218666 669.40565468 -63.50294779 680.89781651 -52.09768677 689.24040604 C-33.20355771 700.94627992 -7.95596567 703.37208964 13.85934448 703.38493729 C14.96922729 703.39718338 16.07911011 703.40942947 17.22262573 703.42204666 C18.82944214 703.42494705 18.82944214 703.42494705 20.46871948 703.42790604 C21.91456421 703.43406937 21.91456421 703.43406937 23.38961792 703.44035721 C26.29742954 703.18063795 28.46784647 702.40977556 31.10934448 701.19743729 C33.6930527 685.13068028 33.18431239 668.56029333 33.16012573 652.32634354 C33.15942959 651.43720575 33.15873344 650.54806797 33.1580162 649.63198662 C33.13601484 622.84329144 32.99000903 596.05463942 32.821805 569.26651573 C32.76643102 560.42394169 32.71728533 551.58137958 32.67620146 542.73872727 C32.64621239 536.39951889 32.60895365 530.06037675 32.56655443 523.72123939 C32.54174222 519.98316834 32.51982948 516.2451425 32.50600052 512.50701332 C32.42526564 491.56840278 32.01215628 470.87320438 27.69528198 450.31462479 C27.10934448 447.19743729 27.10934448 447.19743729 27.10934448 443.19743729 C22.95151819 442.64066155 18.79297868 442.08962627 14.63375854 441.54338455 C13.22568378 441.35769909 11.81779743 441.17057793 10.41012573 440.98186111 C8.35985269 440.70727097 6.30890445 440.43825685 4.25778198 440.17009354 C3.03236694 440.00775223 1.8069519 439.84541092 0.54440308 439.67815018 C-14.4455032 437.97152427 -29.42392143 437.98191589 -44.49221802 437.88103104 C-47.13100491 437.86036059 -49.76978781 437.83938288 -52.40856934 437.81805801 C-57.95791697 437.77391376 -63.50728131 437.73320558 -69.05667114 437.69475174 C-74.6136649 437.65622417 -80.17062457 437.61477191 -85.72756958 437.56975174 C-114.44704095 437.33733688 -143.16679 437.15303283 -171.88724899 437.11359215 C-174.44391558 437.10966158 -177.00058032 437.10413923 -179.55723953 437.09684944 C-206.39452906 436.61933886 -206.39452906 436.61933886 -232.89065552 440.19743729 C-233.27197196 457.12593175 -232.83925481 473.50035834 -229.89065552 490.19743729 C-229.75143677 490.99391678 -229.61221802 491.79039627 -229.46878052 492.61101151 C-226.71978933 507.60637663 -221.41245345 522.24188002 -208.68753052 531.53728104 C-193.47017142 541.9097077 -178.24958509 545.79743775 -159.89065552 544.19743729 C-155.31770691 543.32075802 -151.18334044 541.98507594 -146.89065552 540.19743729 C-146.01151489 539.84681229 -145.13237427 539.49618729 -144.22659302 539.13493729 C-127.62584664 531.73398534 -116.4289466 515.55480191 -110.00637817 499.1307869 C-105.47043595 486.98834912 -103.36551898 474.83612859 -101.9289856 462.00212479 C-101.76692627 460.59253494 -101.76692627 460.59253494 -101.60159302 459.15446854 C-101.51184204 458.31891434 -101.42209106 457.48336014 -101.32962036 456.62248611 C-100.84703768 453.95647177 -99.97175795 451.67535501 -98.89065552 449.19743729 C-95.59065552 449.19743729 -92.29065552 449.19743729 -88.89065552 449.19743729 C-82.98833449 458.29684888 -86.15849956 471.21359972 -87.14065552 481.44743729 C-87.20723358 482.14719681 -87.27381165 482.84695633 -87.34240723 483.56792068 C-90.79878443 519.40346029 -97.62133164 555.34059695 -125.89065552 580.19743729 C-145.45056738 594.98802376 -167.73679578 599.51730603 -191.69143677 596.75993729 C-203.69683994 594.41455938 -214.8066043 588.29178642 -223.89065552 580.19743729 C-224.55323364 579.62767166 -225.21581177 579.05790604 -225.89846802 578.47087479 C-238.42323716 566.92844048 -245.37920493 550.74758667 -249.64065552 534.57243729 C-249.83949341 533.84073318 -250.0383313 533.10902908 -250.24319458 532.35515213 C-254.31910026 515.733427 -254.18526728 498.29714069 -254.12112427 481.29899979 C-254.11992744 479.16393944 -254.11948036 477.02887856 -254.11973572 474.8938179 C-254.11818659 470.45836885 -254.11001671 466.02300231 -254.09646606 461.58757401 C-254.07941612 455.93965148 -254.07565457 450.29181848 -254.07641125 444.64387321 C-254.07613782 440.24950197 -254.07063002 435.85514977 -254.06340981 431.46078491 C-254.06025897 429.37904249 -254.05826426 427.29729795 -254.0575161 425.21555328 C-254.03577705 396.37785238 -254.03577705 396.37785238 -251.89065552 388.19743729 C-250.63704129 388.20020267 -249.38342707 388.20296804 -248.09182453 388.20581722 C-218.24923034 388.27096774 -188.40665468 388.32034699 -158.56400668 388.35063327 C-154.88081593 388.35438483 -151.19762534 388.35826785 -147.51443481 388.36223221 C-146.78126148 388.36301914 -146.04808816 388.36380607 -145.29269745 388.36461685 C-133.46341763 388.37762607 -121.63418211 388.40125482 -109.80492846 388.42889567 C-97.64250635 388.45707534 -85.48010724 388.47363991 -73.31765383 388.47970277 C-66.49652072 388.48342881 -59.67547949 388.49229462 -52.85437965 388.51462746 C-46.41857407 388.53516948 -39.98290863 388.54123567 -33.54707336 388.53676033 C-31.19994021 388.53757767 -28.85280179 388.54343671 -26.50569725 388.55505371 C7.63805421 388.87243202 7.63805421 388.87243202 38.10934448 375.19743729 C41.64876448 371.12287951 42.92191714 366.53911664 43.10934448 361.19743729 C42.42189127 355.76126881 40.73409819 351.37984541 37.10934448 347.19743729 C20.57412304 335.5098912 -0.81993216 336.90509487 -20.10134888 336.98625565 C-22.40121901 336.98846137 -24.70109016 336.98976329 -27.0009613 336.99023819 C-31.92365818 336.99315434 -36.84628763 337.00234238 -41.76896477 337.01654243 C-49.5670601 337.03896237 -57.36513106 337.04692421 -65.16325378 337.05304337 C-76.10682662 337.06279389 -87.05037227 337.07943366 -97.993927 337.10149002 C-98.68620479 337.10288333 -99.37848257 337.10427665 -100.09173847 337.10571218 C-100.7848383 337.10710771 -101.47793813 337.10850325 -102.19204098 337.10994107 C-112.01369541 337.12970113 -121.83535077 337.14754062 -131.65701294 337.16301346 C-132.34812847 337.16410431 -133.03924399 337.16519516 -133.75130241 337.16631906 C-145.31756436 337.18440704 -156.88382913 337.19833369 -168.45009905 337.21018511 C-176.18776256 337.21854535 -183.92538897 337.23252178 -191.66303432 337.25115764 C-196.49194629 337.26187187 -201.32085797 337.26840955 -206.14977837 337.27395821 C-208.37282154 337.27740063 -210.59586288 337.28258316 -212.81889725 337.28972626 C-222.77789459 337.32099721 -232.71595682 337.31749284 -242.66191101 336.75482559 C-243.70654209 336.69645284 -243.70654209 336.69645284 -244.77227682 336.63690084 C-247.68915507 336.44629879 -250.10084134 336.12737535 -252.89065552 335.19743729 C-261.18909206 185.89895801 -261.18909206 185.89895801 -228.89065552 148.19743729 C-223.64914811 142.40718 -217.91724372 138.35777749 -211.01565552 134.82243729 C-210.08076294 134.3396431 -210.08076294 134.3396431 -209.12698364 133.84709549 C-199.22852806 129.07822946 -189.09786586 127.65522765 -178.20315552 127.75993729 C-177.06829712 127.76896072 -175.93343872 127.77798416 -174.76419067 127.78728104 C-154.31289059 128.20530619 -136.41318807 134.40396196 -121.89065552 149.19743729 C-121.28221802 149.73626541 -120.67378052 150.27509354 -120.04690552 150.83024979 C-94.92747983 173.55191212 -86.83897009 216.87328157 -85.13137817 248.76799393 C-84.745696 257.20336749 -84.56321782 266.01195724 -86.89065552 274.19743729 C-91.05010295 275.50236197 -94.54102461 276.31763434 -98.89065552 276.19743729 C-98.98564331 275.51455643 -99.0806311 274.83167557 -99.17849731 274.12810135 C-105.57791463 228.62995084 -105.57791463 228.62995084 -131.89065552 192.19743729 C-146.43189861 181.32797966 -165.20951461 179.44238184 -182.75784302 181.69353104 C-193.97253313 183.90399891 -203.4963001 187.35053983 -211.89065552 195.19743729 C-212.55065552 195.19743729 -213.21065552 195.19743729 -213.89065552 195.19743729 C-214.16264771 195.77493729 -214.43463989 196.35243729 -214.71487427 196.94743729 C-215.88886095 199.19400317 -217.22626619 201.13992392 -218.70315552 203.19743729 C-226.67697 215.24546355 -228.75044036 228.17170551 -230.89065552 242.19743729 C-231.01069946 242.946866 -231.13074341 243.69629471 -231.25442505 244.46843338 C-234.98529931 265.33928895 -234.98529931 265.33928895 -231.89065552 285.19743729 C-218.44232499 285.92965719 -205.00423783 286.46476815 -191.53909302 286.75212479 C-190.58028606 286.77306072 -189.62147911 286.79399666 -188.6336174 286.81556702 C-162.29335757 287.37454273 -135.94966738 287.34947891 -109.60474944 287.32600665 C-104.84620318 287.32220969 -100.08767761 287.32362068 -95.32913208 287.32780838 C-37.07867539 290.25481046 -37.07867539 290.25481046 19.88717651 281.91179276 C21.94752278 281.24945775 24.00455166 280.69766337 26.10934448 280.19743729 C35.24164306 225.58629179 33.45055424 168.69144426 33.3099404 113.45237607 C33.29640569 107.86665745 33.29424762 102.28097764 33.29489058 96.69524485 C33.29550491 90.51433623 33.29038201 84.33344681 33.28209877 78.15254402 C33.27895726 75.5792585 33.27695551 73.00597128 33.27620506 70.43268394 C35.30635636 44.37755925 35.30635636 44.37755925 29.10934448 21.19743729 C19.33317175 20.24251308 9.27158644 21.58225013 -0.44876099 22.6866951 C-2.75495338 22.94623287 -5.06264744 23.18574968 -7.37112427 23.42399979 C-23.93333623 25.21534896 -42.12531931 27.99539331 -55.26956177 38.96306229 C-56.89065552 40.19743729 -56.89065552 40.19743729 -59.89065552 41.19743729 C-60.95869932 43.01986753 -60.95869932 43.01986753 -61.89065552 45.19743729 C-62.84382599 46.70072329 -63.80260224 48.20046328 -64.76565552 49.69743729 C-74.11792417 65.15497668 -75.41886471 85.4267961 -71.81472778 102.91643143 C-68.34817681 116.94091736 -61.08527774 127.62664414 -48.69924927 135.13103104 C-37.7254114 140.93630363 -26.27542214 144.29494845 -14.17971802 146.88493729 C-13.48439972 147.03418655 -12.78908142 147.18343582 -12.07269287 147.33720779 C-8.55660921 148.08784425 -5.03801571 148.81990468 -1.51223755 149.52360916 C6.8100601 151.2244727 14.40633255 153.58744489 22.10934448 157.19743729 C21.23434448 165.94743729 21.23434448 165.94743729 20.10934448 168.19743729 C-19.64949022 169.41173272 -67.06505892 165.78739969 -98.89065552 139.19743729 C-99.55710083 138.67665604 -100.22354614 138.15587479 -100.91018677 137.61931229 C-115.78573225 125.53109781 -124.32440294 106.9265789 -126.89065552 88.19743729 C-128.13320467 68.39580945 -125.31160533 48.31693295 -112.89065552 32.19743729 C-112.40210083 31.5335701 -111.91354614 30.86970291 -111.41018677 30.18571854 C-96.12150604 10.97105559 -68.7536208 4.50792586 -45.57498169 1.63835526 C-30.39892095 -0.06373156 -15.25144358 -0.07919203 0 0 Z M83.10934448 341.19743729 C76.6824271 350.13805386 75.32342055 357.24073304 76.10934448 368.19743729 C77.78766025 376.95189521 82.40052852 383.43171367 89.10934448 389.19743729 C97.18598928 394.07438894 105.88380141 395.54131264 115.11325073 393.54899979 C124.58978213 390.71693293 132.26787885 386.02298267 137.17965698 377.23259354 C141.5068569 367.76002564 140.62651965 359.09449556 137.44137573 349.39274979 C134.52709574 342.40189633 129.91518726 336.66708262 123.10934448 333.19743729 C109.08532542 327.75810443 93.75628522 329.84355682 83.10934448 341.19743729 Z " fill="#FEFEFE" transform="translate(266.8906555175781,-0.19743728637695313)"/>
<path d="M0 0 C4.9771799 11.40603727 4.39276274 24.48355838 0.25390625 36.078125 C-5.86212305 50.32980699 -17.64264845 63.75576167 -31.94140625 70.2578125 C-43.97566021 74.59653784 -55.67519596 72.81867991 -68 71 C-72.18003413 56.47020137 -71.50473874 40.53565187 -64.45703125 27.046875 C-56.01590534 12.9075062 -44.22900521 4.7708833 -28.30078125 0.71484375 C-18.70969277 -1.36227955 -9.72400959 -0.8427475 0 0 Z " fill="#FEFEFE" transform="translate(699,36)"/>
<path d="M0 0 C10.01969343 9.44611527 15.59299413 22.40314675 16.41796875 36.1015625 C16.46798045 43.36326076 15.66375107 50.19325355 14.25 57.3125 C-0.61116378 59.67544457 -16.12048617 61.56065668 -29.23046875 52.62109375 C-44.4846319 40.9144104 -55.02873889 27.75381737 -57.75 8.3125 C-58.29790527 1.24069948 -57.960378 -7.26674399 -54.75 -13.6875 C-36.26873396 -18.50687777 -14.28530526 -11.79985519 0 0 Z " fill="#FEFEFE" transform="translate(104.75,49.6875)"/>
<path d="M0 0 C1.42505859 0.00773438 1.42505859 0.00773438 2.87890625 0.015625 C7.95573578 0.07195598 12.89073604 0.24510807 17.875 1.25 C22.43656192 6.64093681 21.29396644 17.67843375 20.875 24.25 C18.89702963 39.11830271 13.21416283 51.24756775 1.875 61.25 C-12.68532737 71.84094717 -29.81520202 75.3980848 -47.5859375 72.73046875 C-48.84277344 72.49263672 -48.84277344 72.49263672 -50.125 72.25 C-55.13831389 58.54694203 -53.47330282 45.46795468 -47.734375 32.3359375 C-40.57011747 18.59864758 -28.70131394 5.64054663 -13.66479492 0.84106445 C-9.12449963 -0.21555911 -4.63772514 -0.10150972 0 0 Z " fill="#FEFEFE" transform="translate(100.125,615.75)"/>
<path d="M0 0 C1.28169525 1.04937167 2.55260937 2.11204697 3.8125 3.1875 C4.46863281 3.70054687 5.12476563 4.21359375 5.80078125 4.7421875 C16.57667786 13.48844922 23.61999603 25.7564811 26.8125 39.1875 C27.10186643 42.17279696 27.13764839 45.1273318 27.125 48.125 C27.14111328 48.88490234 27.15722656 49.64480469 27.17382812 50.42773438 C27.1785545 55.96232232 26.42730278 60.26066108 23.8125 65.1875 C21.0546875 66.16796875 21.0546875 66.16796875 17.8125 66.1875 C16.72195313 66.26613281 15.63140625 66.34476563 14.5078125 66.42578125 C-2.63917496 66.78222847 -18.21613813 62.61867244 -30.8671875 50.5625 C-41.89069858 39.27917553 -46.3636309 26.85977092 -46.375 11.25 C-46.38724609 10.36892578 -46.39949219 9.48785156 -46.41210938 8.58007812 C-46.43336953 -0.88069006 -46.43336953 -0.88069006 -44.1875 -4.8125 C-31.13642757 -10.78560987 -11.36995316 -8.10897233 0 0 Z " fill="#FDFDFD" transform="translate(675.1875,622.8125)"/>
</svg>
