<svg width="72" height="72" viewBox="0 0 72 72" fill="none" xmlns="http://www.w3.org/2000/svg">
<g clip-path="url(#clip0_65_1602)">
<path d="M70.9795 37.793C71.6592 39.293 71.999 40.8516 71.999 42.4688V45C71.999 45.8906 71.8818 46.7461 71.6475 47.5664C71.4131 48.3867 71.0615 49.1484 70.5928 49.8516C70.124 50.5547 69.5615 51.1875 68.9053 51.75C68.249 52.3125 67.5225 52.7812 66.7256 53.1562C66.374 53.9766 65.917 54.7148 65.3545 55.3711C64.792 56.0273 64.1475 56.5781 63.4209 57.0234C62.6943 57.4688 61.9209 57.832 61.1006 58.1133C60.2803 58.3945 59.4131 58.5234 58.499 58.5C56.8818 58.5 55.3818 58.1016 53.999 57.3047C52.6162 56.5078 51.5146 55.4062 50.6943 54H25.8037C24.9834 55.4062 23.8818 56.5078 22.499 57.3047C21.1162 58.1016 19.6162 58.5 17.999 58.5C16.3818 58.5 14.8818 58.1016 13.499 57.3047C12.1162 56.5078 11.0146 55.4062 10.1943 54H4.49902C3.86621 54 3.28027 53.8828 2.74121 53.6484C2.20215 53.4141 1.7334 53.0977 1.33496 52.6992C0.936523 52.3008 0.608398 51.8203 0.350586 51.2578C0.0927734 50.6953 -0.0244141 50.1094 -0.000976562 49.5V40.5C-0.000976562 38.6484 0.350586 36.9023 1.05371 35.2617C1.75684 33.6211 2.71777 32.1914 3.93652 30.9727C5.15527 29.7539 6.58496 28.7812 8.22558 28.0547C9.86621 27.3281 11.624 26.9766 13.499 27H14.7998L26.3311 15.4688C26.9639 14.8359 27.6904 14.3555 28.5107 14.0273C29.3311 13.6992 30.1982 13.5234 31.1123 13.5H62.999V18H61.9795L70.9795 37.793ZM17.999 54C18.6318 54 19.2178 53.8828 19.7568 53.6484C20.2959 53.4141 20.7646 53.0977 21.1631 52.6992C21.5615 52.3008 21.8896 51.8203 22.1475 51.2578C22.4053 50.6953 22.5225 50.1094 22.499 49.5C22.499 48.8672 22.3818 48.2812 22.1475 47.7422C21.9131 47.2031 21.5967 46.7344 21.1982 46.3359C20.7998 45.9375 20.3193 45.6094 19.7568 45.3516C19.1943 45.0938 18.6084 44.9766 17.999 45C17.3662 45 16.7803 45.1172 16.2412 45.3516C15.7021 45.5859 15.2334 45.9023 14.835 46.3008C14.4365 46.6992 14.1084 47.1797 13.8506 47.7422C13.5928 48.3047 13.4756 48.8906 13.499 49.5C13.499 50.1328 13.6162 50.7188 13.8506 51.2578C14.085 51.7969 14.4014 52.2656 14.7998 52.6641C15.1982 53.0625 15.6787 53.3906 16.2412 53.6484C16.8037 53.9062 17.3896 54.0234 17.999 54ZM40.499 18H31.1123C30.5029 18 29.9756 18.2227 29.5303 18.668L21.1982 27H40.499V18ZM44.999 27H61.1357L57.6553 19.3008C57.4678 18.9023 57.1865 18.5859 56.8115 18.3516C56.4365 18.1172 56.0264 18 55.5811 18H44.999V27ZM58.499 54C59.1318 54 59.7178 53.8828 60.2568 53.6484C60.7959 53.4141 61.2646 53.0977 61.6631 52.6992C62.0615 52.3008 62.3896 51.8203 62.6475 51.2578C62.9053 50.6953 63.0225 50.1094 62.999 49.5C62.999 48.8672 62.8818 48.2812 62.6475 47.7422C62.4131 47.2031 62.0967 46.7344 61.6982 46.3359C61.2998 45.9375 60.8193 45.6094 60.2568 45.3516C59.6943 45.0938 59.1084 44.9766 58.499 45C57.8662 45 57.2803 45.1172 56.7412 45.3516C56.2021 45.5859 55.7334 45.9023 55.335 46.3008C54.9365 46.6992 54.6084 47.1797 54.3506 47.7422C54.0928 48.3047 53.9756 48.8906 53.999 49.5C53.999 50.1328 54.1162 50.7188 54.3506 51.2578C54.585 51.7969 54.9014 52.2656 55.2998 52.6641C55.6982 53.0625 56.1787 53.3906 56.7412 53.6484C57.3037 53.9062 57.8896 54.0234 58.499 54Z" fill="#4F4F4F"/>
</g>
<defs>
<clipPath id="clip0_65_1602">
<rect width="72" height="72" fill="white"/>
</clipPath>
</defs>
</svg>
