<svg width="32" height="32" viewBox="0 0 32 32" fill="none" xmlns="http://www.w3.org/2000/svg">
<path d="M15.9998 3.2002C14.3024 3.2002 12.6746 3.87448 11.4743 5.07471C10.2741 6.27494 9.5998 7.90281 9.5998 9.6002C9.5998 11.2976 10.2741 12.9254 11.4743 14.1257C12.6746 15.3259 14.3024 16.0002 15.9998 16.0002C17.6972 16.0002 19.3251 15.3259 20.5253 14.1257C21.7255 12.9254 22.3998 11.2976 22.3998 9.6002C22.3998 7.90281 21.7255 6.27494 20.5253 5.07471C19.3251 3.87448 17.6972 3.2002 15.9998 3.2002ZM11.1998 9.6002C11.1998 8.32716 11.7055 7.10626 12.6057 6.20608C13.5059 5.30591 14.7268 4.8002 15.9998 4.8002C17.2728 4.8002 18.4937 5.30591 19.3939 6.20608C20.2941 7.10626 20.7998 8.32716 20.7998 9.6002C20.7998 10.8732 20.2941 12.0941 19.3939 12.9943C18.4937 13.8945 17.2728 14.4002 15.9998 14.4002C14.7268 14.4002 13.5059 13.8945 12.6057 12.9943C11.7055 12.0941 11.1998 10.8732 11.1998 9.6002ZM8.0142 17.6002C7.59282 17.5985 7.17525 17.68 6.78544 17.8401C6.39563 18.0001 6.04125 18.2355 5.74262 18.5328C5.44399 18.8301 5.20698 19.1834 5.04519 19.5725C4.8834 19.9616 4.80001 20.3788 4.7998 20.8002C4.7998 23.5058 6.1326 25.5458 8.21581 26.8754C10.267 28.1826 13.0318 28.8002 15.9998 28.8002C18.9678 28.8002 21.7326 28.1826 23.7838 26.8754C25.867 25.5474 27.1998 23.5042 27.1998 20.8002C27.1998 19.9515 26.8627 19.1376 26.2625 18.5375C25.6624 17.9373 24.8485 17.6002 23.9998 17.6002H8.0142ZM6.3998 20.8002C6.3998 19.9154 7.1166 19.2002 8.0142 19.2002H23.9998C24.4242 19.2002 24.8311 19.3688 25.1312 19.6688C25.4312 19.9689 25.5998 20.3758 25.5998 20.8002C25.5998 22.8946 24.6046 24.4546 22.923 25.525C21.211 26.6178 18.7758 27.2002 15.9998 27.2002C13.2238 27.2002 10.7886 26.6178 9.0766 25.525C7.3966 24.453 6.3998 22.8962 6.3998 20.8002Z" fill="#949085"/>
</svg>
