<svg width="24" height="24" viewBox="0 0 24 24" fill="none" xmlns="http://www.w3.org/2000/svg">
<path d="M20.8768 22C18.2768 22 15.8311 21.5083 13.5398 20.525C11.2478 19.5417 9.24779 18.196 7.53979 16.488C5.83112 14.7793 4.48112 12.7793 3.48979 10.488C2.49779 8.196 2.00179 5.74167 2.00179 3.125C1.98512 2.825 2.08512 2.56233 2.30179 2.337C2.51845 2.11233 2.78512 2 3.10179 2H7.00179C7.30179 2 7.56012 2.11233 7.77679 2.337C7.99345 2.56233 8.10179 2.83333 8.10179 3.15C8.10179 3.88333 8.15179 4.575 8.25179 5.225C8.35179 5.875 8.51012 6.49167 8.72679 7.075C8.81012 7.25833 8.82679 7.44567 8.77679 7.637C8.72679 7.829 8.62679 8.00833 8.47679 8.175L5.97679 10.675C6.69345 12.1417 7.71012 13.5333 9.02679 14.85C10.3435 16.1667 11.7601 17.2167 13.2768 18L15.7768 15.5C15.9268 15.35 16.1018 15.25 16.3018 15.2C16.5018 15.15 16.7018 15.1667 16.9018 15.25C17.5185 15.45 18.1558 15.604 18.8138 15.712C19.4725 15.8207 20.1518 15.875 20.8518 15.875C21.1685 15.875 21.4395 15.9917 21.6648 16.225C21.8895 16.4583 22.0018 16.7417 22.0018 17.075V20.9C22.0018 21.2 21.8935 21.4583 21.6768 21.675C21.4601 21.8917 21.1935 22 20.8768 22ZM15.1268 19C15.8768 19.2833 16.6601 19.5083 17.4768 19.675C18.2935 19.8417 19.1351 19.95 20.0018 20V17.85C19.4851 17.8167 18.9561 17.7583 18.4148 17.675C17.8728 17.5917 17.3351 17.4667 16.8018 17.3L15.1268 19ZM20.0018 12C20.0018 9.76667 19.2268 7.875 17.6768 6.325C16.1268 4.775 14.2351 4 12.0018 4V2C13.3851 2 14.6851 2.26233 15.9018 2.787C17.1185 3.31233 18.1768 4.025 19.0768 4.925C19.9768 5.825 20.6891 6.88333 21.2138 8.1C21.7391 9.31667 22.0018 10.6167 22.0018 12H20.0018ZM16.0018 12C16.0018 10.9 15.6101 9.95833 14.8268 9.175C14.0435 8.39167 13.1018 8 12.0018 8V6C13.6685 6 15.0851 6.58333 16.2518 7.75C17.4185 8.91667 18.0018 10.3333 18.0018 12H16.0018ZM5.00179 8.825L6.65179 7.15C6.51845 6.66667 6.40579 6.15833 6.31379 5.625C6.22245 5.09167 6.16012 4.55 6.12679 4H4.02679C4.06012 4.8 4.16012 5.6 4.32679 6.4C4.49345 7.2 4.71845 8.00833 5.00179 8.825Z" fill="#F0EFEB"/>
</svg>
