<svg width="30" height="30" viewBox="0 0 30 30" fill="none" xmlns="http://www.w3.org/2000/svg">
<path d="M27.1406 20.5194C26.9333 22.102 26.1584 23.5553 24.9599 24.6094C23.7615 25.6634 22.221 26.2464 20.625 26.2499C11.3203 26.2499 3.75 18.6796 3.75 9.37492C3.75352 7.77889 4.33649 6.23845 5.39053 5.03999C6.44458 3.84153 7.89796 3.0666 9.48047 2.85929C9.88388 2.81456 10.2911 2.8995 10.6429 3.10178C10.9948 3.30406 11.2731 3.61318 11.4375 3.98429L13.793 9.48039C13.9152 9.76567 13.9641 10.077 13.9355 10.386C13.9068 10.695 13.8015 10.992 13.6289 11.2499L11.6836 14.2265C12.5645 16.0142 14.0159 17.4574 15.8086 18.328L18.75 16.371C19.0077 16.1973 19.3054 16.0922 19.615 16.0655C19.9246 16.0389 20.2359 16.0916 20.5195 16.2187L26.0156 18.5624C26.3867 18.7268 26.6959 19.0051 26.8981 19.357C27.1004 19.7089 27.1854 20.116 27.1406 20.5194ZM18.4453 5.58976C19.8723 5.97963 21.173 6.73484 22.2191 7.78087C23.2651 8.8269 24.0203 10.1276 24.4102 11.5546C24.4619 11.755 24.5784 11.9326 24.7417 12.0597C24.9049 12.1869 25.1056 12.2565 25.3125 12.2577C25.3958 12.2576 25.4786 12.2457 25.5586 12.2226C25.6778 12.1914 25.7895 12.1367 25.8873 12.0618C25.9851 11.9869 26.0669 11.8932 26.1281 11.7863C26.1892 11.6793 26.2283 11.5612 26.2432 11.4389C26.2581 11.3167 26.2485 11.1926 26.2148 11.0741C25.7461 9.3265 24.8258 7.73295 23.5464 6.45352C22.267 5.17408 20.6734 4.25379 18.9258 3.78507C18.8035 3.74052 18.6733 3.72192 18.5434 3.73046C18.4135 3.73899 18.2869 3.77448 18.1714 3.83465C18.056 3.89482 17.9544 3.97837 17.8731 4.07996C17.7917 4.18156 17.7324 4.29898 17.6989 4.42475C17.6654 4.55052 17.6585 4.68188 17.6786 4.81048C17.6986 4.93908 17.7453 5.06208 17.8155 5.17167C17.8857 5.28126 17.978 5.37503 18.0864 5.44702C18.1948 5.519 18.3171 5.56761 18.4453 5.58976ZM17.4727 9.21086C18.2659 9.42799 18.9889 9.848 19.5704 10.4295C20.1519 11.0111 20.5719 11.734 20.7891 12.5273C20.8389 12.7286 20.955 12.9074 21.1186 13.0349C21.2823 13.1624 21.484 13.2312 21.6914 13.2304C21.7709 13.2312 21.85 13.2193 21.9258 13.1952C22.046 13.1653 22.159 13.1116 22.2581 13.0372C22.3572 12.9629 22.4403 12.8694 22.5026 12.7623C22.5649 12.6552 22.6051 12.5367 22.6207 12.4138C22.6364 12.2909 22.6272 12.1661 22.5938 12.0468C22.2978 10.9329 21.7127 9.91709 20.8978 9.10214C20.0828 8.2872 19.067 7.70212 17.9531 7.40617C17.8308 7.36162 17.7006 7.34302 17.5707 7.35155C17.4409 7.36009 17.3142 7.39557 17.1988 7.45574C17.0834 7.51592 16.9818 7.59946 16.9004 7.70105C16.8191 7.80265 16.7598 7.92007 16.7263 8.04584C16.6928 8.17161 16.6859 8.30298 16.7059 8.43157C16.726 8.56017 16.7726 8.68318 16.8428 8.79277C16.913 8.90236 17.0053 8.99613 17.1137 9.06811C17.2222 9.14009 17.3444 9.1887 17.4727 9.21086Z" fill="#949085"/>
</svg>
