<svg width="32" height="33" viewBox="0 0 32 33" fill="none" xmlns="http://www.w3.org/2000/svg">
<g clip-path="url(#clip0_188_1032)">
<path d="M28 30.5V8.5H22V2.5H4V30.5H0V32.5H14V26.5H18V32.5H32V30.5H28ZM12 22.5H8V18.5H12V22.5ZM12 16.5H8V12.5H12V16.5ZM12 10.5H8V6.5H12V10.5ZM18 22.5H14V18.5H18V22.5ZM18 16.5H14V12.5H18V16.5ZM18 10.5H14V6.5H18V10.5ZM26 22.5H22V18.5H26V22.5ZM26 16.5H22V12.5H26V16.5Z" fill="#949085"/>
</g>
<defs>
<clipPath id="clip0_188_1032">
<rect width="32" height="32" fill="white" transform="translate(0 0.5)"/>
</clipPath>
</defs>
</svg>
