<svg width="72" height="72" viewBox="0 0 72 72" fill="none" xmlns="http://www.w3.org/2000/svg">
<path fill-rule="evenodd" clip-rule="evenodd" d="M2.43275 24.9874C6.79012 20.4921 12.0074 16.9194 17.774 14.4821C23.5406 12.0447 29.7386 10.7924 35.9992 10.7998C49.1644 10.7998 61.066 16.2394 69.5656 24.9874C70.0597 25.4964 70.3337 26.1794 70.3283 26.8887C70.3229 27.5981 70.0386 28.2768 69.5368 28.7782L68.266 30.0526C68.0128 30.306 67.7118 30.5065 67.3804 30.6424C67.049 30.7783 66.6939 30.8469 66.3357 30.8442C65.9776 30.8415 65.6235 30.7676 65.2942 30.6268C64.9649 30.4859 64.6669 30.281 64.4176 30.0238C57.2176 22.6078 47.1484 17.9998 35.9992 17.9998C24.85 17.9998 14.7808 22.6078 7.58075 30.0238C7.33142 30.281 7.03342 30.4859 6.70411 30.6268C6.37479 30.7676 6.02074 30.8415 5.66259 30.8442C5.30443 30.8469 4.94931 30.7783 4.61793 30.6424C4.28654 30.5065 3.98551 30.306 3.73235 30.0526L2.46155 28.7782C1.95973 28.2768 1.67539 27.5981 1.67 26.8887C1.66461 26.1794 1.93861 25.4964 2.43275 24.9874ZM12.6028 35.1862C15.624 32.0253 19.2553 29.5104 23.2769 27.7939C27.2985 26.0773 31.6266 25.1948 35.9992 25.1998C40.3717 25.1948 44.6998 26.0773 48.7214 27.7939C52.743 29.5104 56.3743 32.0253 59.3956 35.1862C59.8839 35.6959 60.1533 36.3766 60.1459 37.0825C60.1385 37.7884 59.8549 38.4633 59.356 38.9626L58.0816 40.237C57.8273 40.4911 57.5248 40.6919 57.1919 40.8275C56.859 40.9632 56.5023 41.031 56.1429 41.027C55.7834 41.0229 55.4284 40.9472 55.0986 40.8041C54.7688 40.661 54.4709 40.4536 54.2224 40.1938C51.8722 37.7267 49.0447 35.7635 45.9119 34.4236C42.7791 33.0838 39.4065 32.3952 35.9992 32.3998C28.8352 32.3998 22.3696 35.3878 17.7796 40.1938C17.531 40.4541 17.2328 40.6621 16.9027 40.8054C16.5726 40.9488 16.2171 41.0248 15.8573 41.0288C15.4974 41.0328 15.1403 40.9649 14.807 40.8289C14.4738 40.6929 14.1711 40.4917 13.9168 40.237L12.6424 38.9626C12.1428 38.4627 11.8592 37.7867 11.8525 37.08C11.8458 36.3732 12.1164 35.692 12.6064 35.1826M22.7584 45.4066C24.4426 43.5741 26.4893 42.1117 28.7686 41.112C31.048 40.1124 33.5102 39.5975 35.9992 39.5998C41.2408 39.5998 45.9604 41.8426 49.2472 45.4102C49.7196 45.9232 49.9752 46.5991 49.9604 47.2964C49.9456 47.9936 49.6617 48.6581 49.168 49.1506L47.8936 50.425C47.6352 50.6832 47.3271 50.8863 46.9879 51.0219C46.6488 51.1576 46.2857 51.223 45.9205 51.2142C45.5554 51.2055 45.1958 51.1227 44.8635 50.971C44.5313 50.8193 44.2333 50.6017 43.9876 50.3314C42.9767 49.2172 41.7436 48.3273 40.3677 47.719C38.9917 47.1107 37.5036 46.7976 35.9992 46.7998C32.8312 46.7998 29.9872 48.157 28.0072 50.3314C27.7615 50.6011 27.4637 50.8182 27.1318 50.9696C26.7998 51.121 26.4407 51.2036 26.076 51.2124C25.7112 51.2211 25.3485 51.1558 25.0097 51.0205C24.6709 50.8852 24.3631 50.6826 24.1048 50.425L22.8304 49.1506C22.3371 48.6576 22.0538 47.9929 22.0397 47.2957C22.0256 46.5984 22.2819 45.9228 22.7548 45.4102M32.8168 55.3174C33.2342 54.8986 33.7301 54.5663 34.2762 54.3395C34.8223 54.1127 35.4078 53.996 35.9992 53.996C36.5905 53.996 37.176 54.1127 37.7221 54.3395C38.2682 54.5663 38.7642 54.8986 39.1816 55.3174C39.6872 55.8237 39.9712 56.5099 39.9712 57.2254C39.9712 57.9409 39.6872 58.6272 39.1816 59.1334L37.9072 60.4078C37.4009 60.9135 36.7147 61.1975 35.9992 61.1975C35.2837 61.1975 34.5974 60.9135 34.0912 60.4078L32.8168 59.137C32.3111 58.6308 32.0271 57.9445 32.0271 57.229C32.0271 56.5135 32.3111 55.8237 32.8168 55.3174Z" fill="#4F4F4F"/>
</svg>
