<svg width="72" height="72" viewBox="0 0 72 72" fill="none" xmlns="http://www.w3.org/2000/svg">
<rect width="72" height="72" fill="black"/>
<g id="option 2" clip-path="url(#clip0_31_2)">
<rect id="Rectangle 34624137" x="-626" y="-4500" width="1920" height="5510" fill="#002B53"/>
<rect id="Rectangle 34624159" x="-626" y="-1452" width="1920" height="1947" fill="#CDCDC1"/>
<g id="Group 3724">
<g id="Group 3717">
<g id="material-symbols:wifi">
<path id="Vector" d="M36 63C33.9 63 32.125 62.275 30.675 60.825C29.225 59.375 28.5 57.6 28.5 55.5C28.5 53.4 29.225 51.625 30.675 50.175C32.125 48.725 33.9 48 36 48C38.1 48 39.875 48.725 41.325 50.175C42.775 51.625 43.5 53.4 43.5 55.5C43.5 57.6 42.775 59.375 41.325 60.825C39.875 62.275 38.1 63 36 63ZM19.05 46.05L12.75 39.6C15.7 36.65 19.163 34.313 23.139 32.589C27.115 30.865 31.402 30.002 36 30C40.6 30 44.888 30.875 48.864 32.625C52.84 34.375 56.302 36.75 59.25 39.75L52.95 46.05C50.75 43.85 48.2 42.125 45.3 40.875C42.4 39.625 39.3 39 36 39C32.7 39 29.6 39.625 26.7 40.875C23.8 42.125 21.25 43.85 19.05 46.05ZM6.3 33.3L0 27C4.6 22.3 9.975 18.625 16.125 15.975C22.275 13.325 28.9 12 36 12C43.1 12 49.725 13.325 55.875 15.975C62.025 18.625 67.4 22.3 72 27L65.7 33.3C61.85 29.45 57.388 26.438 52.314 24.264C47.24 22.09 41.802 21.002 36 21C30.2 21 24.763 22.088 19.689 24.264C14.615 26.44 10.152 29.452 6.3 33.3Z" fill="#4F4F4F"/>
</g>
</g>
</g>
</g>
<defs>
<clipPath id="clip0_31_2">
<rect width="1920" height="5510" fill="white" transform="translate(-626 -4500)"/>
</clipPath>
</defs>
</svg>
